<svg width="512" height="512" viewBox="0 0 512 512" xmlns="http://www.w3.org/2000/svg">
  <rect width="512" height="512" fill="#d4af37" rx="60" />
  <path d="M256 100c-86.1 0-156 69.9-156 156s69.9 156 156 156 156-69.9 156-156-69.9-156-156-156zm0 280c-68.5 0-124-55.5-124-124s55.5-124 124-124 124 55.5 124 124-55.5 124-124 124z" fill="#fefcf2"/>
  <path d="M256 150c-58.5 0-106 47.5-106 106s47.5 106 106 106 106-47.5 106-106-47.5-106-106-106zm0 180c-40.8 0-74-33.2-74-74s33.2-74 74-74 74 33.2 74 74-33.2 74-74 74z" fill="#d4af37"/>
  <circle cx="256" cy="220" r="20" fill="#fefcf2"/>
  <polygon points="256,180 266,205 291,205 271,220 281,245 256,230 231,245 241,220 221,205 246,205" fill="#fefcf2"/>
</svg>
